<mxfile host="65bd71144e">
    <diagram id="74qJ68DXpdYIWCWvNvtx" name="Page-1">
        <mxGraphModel dx="933" dy="756" grid="1" gridSize="10" guides="1" tooltips="1" connect="1" arrows="1" fold="1" page="1" pageScale="1" pageWidth="827" pageHeight="1169" background="none" math="0" shadow="0">
            <root>
                <mxCell id="0"/>
                <mxCell id="1" parent="0"/>
                <mxCell id="29" value="&amp;nbsp;Categorical - One Column" style="rounded=0;whiteSpace=wrap;html=1;fillColor=none;align=left;verticalAlign=top;strokeColor=#F0F0F0;shadow=0;fontColor=#FFFFFF;strokeWidth=1;" vertex="1" parent="1">
                    <mxGeometry x="200" y="170" width="220" height="230" as="geometry"/>
                </mxCell>
                <mxCell id="30" value="&amp;nbsp;OHE - Three Columns" style="rounded=0;whiteSpace=wrap;html=1;fillColor=none;align=left;verticalAlign=top;strokeColor=#F0F0F0;shadow=0;fontColor=#FFFFFF;strokeWidth=1;" vertex="1" parent="1">
                    <mxGeometry x="440" y="170" width="220" height="230" as="geometry"/>
                </mxCell>
                <mxCell id="8" value="" style="group;strokeColor=#F0F0F0;shadow=0;fillColor=none;fontColor=#FFFFFF;strokeWidth=1;" vertex="1" connectable="0" parent="1">
                    <mxGeometry x="270" y="220" width="90" height="30" as="geometry"/>
                </mxCell>
                <mxCell id="2" value="1" style="rounded=0;whiteSpace=wrap;html=1;strokeColor=#F0F0F0;shadow=0;fillColor=none;fontColor=#FFFFFF;strokeWidth=1;" vertex="1" parent="8">
                    <mxGeometry width="30" height="30" as="geometry"/>
                </mxCell>
                <mxCell id="3" value="2" style="rounded=0;whiteSpace=wrap;html=1;strokeColor=#F0F0F0;shadow=0;fillColor=none;fontColor=#FFFFFF;strokeWidth=1;" vertex="1" parent="8">
                    <mxGeometry x="30" width="30" height="30" as="geometry"/>
                </mxCell>
                <mxCell id="4" value="3" style="rounded=0;whiteSpace=wrap;html=1;strokeColor=#F0F0F0;shadow=0;fillColor=none;fontColor=#FFFFFF;strokeWidth=1;" vertex="1" parent="8">
                    <mxGeometry x="60" width="30" height="30" as="geometry"/>
                </mxCell>
                <mxCell id="13" value="" style="endArrow=none;html=1;endFill=0;strokeWidth=2;strokeColor=#F0F0F0;shadow=0;" edge="1" parent="8">
                    <mxGeometry width="50" height="50" relative="1" as="geometry">
                        <mxPoint x="30" y="-10" as="sourcePoint"/>
                        <mxPoint x="30" y="40" as="targetPoint"/>
                    </mxGeometry>
                </mxCell>
                <mxCell id="14" value="1" style="rounded=0;whiteSpace=wrap;html=1;strokeColor=#F0F0F0;shadow=0;fillColor=none;fontColor=#FFFFFF;strokeWidth=1;" vertex="1" parent="1">
                    <mxGeometry x="235" y="280" width="30" height="30" as="geometry"/>
                </mxCell>
                <mxCell id="26" style="edgeStyle=none;html=1;strokeColor=#F0F0F0;shadow=0;" edge="1" parent="1" source="19" target="23">
                    <mxGeometry relative="1" as="geometry"/>
                </mxCell>
                <mxCell id="19" value="2" style="rounded=0;whiteSpace=wrap;html=1;strokeColor=#F0F0F0;shadow=0;fillColor=none;fontColor=#FFFFFF;strokeWidth=1;" vertex="1" parent="1">
                    <mxGeometry x="315" y="280" width="30" height="30" as="geometry"/>
                </mxCell>
                <mxCell id="25" style="edgeStyle=none;html=1;entryX=0.5;entryY=0;entryDx=0;entryDy=0;strokeColor=#F0F0F0;shadow=0;" edge="1" parent="1" source="20" target="24">
                    <mxGeometry relative="1" as="geometry"/>
                </mxCell>
                <mxCell id="20" value="3" style="rounded=0;whiteSpace=wrap;html=1;strokeColor=#F0F0F0;shadow=0;fillColor=none;fontColor=#FFFFFF;strokeWidth=1;" vertex="1" parent="1">
                    <mxGeometry x="345" y="280" width="30" height="30" as="geometry"/>
                </mxCell>
                <mxCell id="21" style="edgeStyle=none;html=1;entryX=0.5;entryY=0;entryDx=0;entryDy=0;strokeColor=#F0F0F0;shadow=0;" edge="1" parent="1" source="2" target="14">
                    <mxGeometry relative="1" as="geometry"/>
                </mxCell>
                <mxCell id="22" style="edgeStyle=none;html=1;entryX=1;entryY=0;entryDx=0;entryDy=0;exitX=0;exitY=1;exitDx=0;exitDy=0;strokeColor=#F0F0F0;shadow=0;" edge="1" parent="1" source="4" target="19">
                    <mxGeometry relative="1" as="geometry"/>
                </mxCell>
                <mxCell id="23" value="2" style="rounded=0;whiteSpace=wrap;html=1;strokeColor=#F0F0F0;shadow=0;fillColor=none;fontColor=#FFFFFF;strokeWidth=1;" vertex="1" parent="1">
                    <mxGeometry x="305" y="340" width="30" height="30" as="geometry"/>
                </mxCell>
                <mxCell id="24" value="3" style="rounded=0;whiteSpace=wrap;html=1;strokeColor=#F0F0F0;shadow=0;fillColor=none;fontColor=#FFFFFF;strokeWidth=1;" vertex="1" parent="1">
                    <mxGeometry x="365" y="340" width="30" height="30" as="geometry"/>
                </mxCell>
                <mxCell id="35" style="edgeStyle=none;html=1;entryX=0;entryY=0;entryDx=0;entryDy=0;strokeColor=#F0F0F0;shadow=0;" edge="1" parent="1" source="27" target="32">
                    <mxGeometry relative="1" as="geometry"/>
                </mxCell>
                <mxCell id="27" value="0" style="rounded=0;whiteSpace=wrap;html=1;strokeColor=#F0F0F0;shadow=0;fillColor=none;fontColor=#FFFFFF;strokeWidth=1;" vertex="1" parent="1">
                    <mxGeometry x="537" y="220" width="30" height="30" as="geometry"/>
                </mxCell>
                <mxCell id="38" style="edgeStyle=none;html=1;strokeColor=#F0F0F0;shadow=0;" edge="1" parent="1" source="28" target="37">
                    <mxGeometry relative="1" as="geometry"/>
                </mxCell>
                <mxCell id="28" value="1" style="rounded=0;whiteSpace=wrap;html=1;strokeColor=#F0F0F0;shadow=0;fillColor=none;fontColor=#FFFFFF;strokeWidth=1;" vertex="1" parent="1">
                    <mxGeometry x="567" y="220" width="30" height="30" as="geometry"/>
                </mxCell>
                <mxCell id="36" style="edgeStyle=none;html=1;entryX=1;entryY=0;entryDx=0;entryDy=0;strokeColor=#F0F0F0;shadow=0;" edge="1" parent="1" source="31" target="33">
                    <mxGeometry relative="1" as="geometry"/>
                </mxCell>
                <mxCell id="31" value="0" style="rounded=0;whiteSpace=wrap;html=1;strokeColor=#F0F0F0;shadow=0;fillColor=none;fontColor=#FFFFFF;strokeWidth=1;" vertex="1" parent="1">
                    <mxGeometry x="501" y="280" width="30" height="30" as="geometry"/>
                </mxCell>
                <mxCell id="40" style="edgeStyle=none;html=1;entryX=0.5;entryY=0;entryDx=0;entryDy=0;strokeColor=#F0F0F0;shadow=0;" edge="1" parent="1" source="32" target="39">
                    <mxGeometry relative="1" as="geometry"/>
                </mxCell>
                <mxCell id="32" value="1" style="rounded=0;whiteSpace=wrap;html=1;strokeColor=#F0F0F0;shadow=0;fillColor=none;fontColor=#FFFFFF;strokeWidth=1;" vertex="1" parent="1">
                    <mxGeometry x="531" y="280" width="30" height="30" as="geometry"/>
                </mxCell>
                <mxCell id="33" value="0" style="rounded=0;whiteSpace=wrap;html=1;strokeColor=#F0F0F0;shadow=0;fillColor=none;fontColor=#FFFFFF;strokeWidth=1;" vertex="1" parent="1">
                    <mxGeometry x="461" y="340" width="30" height="30" as="geometry"/>
                </mxCell>
                <mxCell id="34" value="1" style="rounded=0;whiteSpace=wrap;html=1;strokeColor=#F0F0F0;shadow=0;fillColor=none;fontColor=#FFFFFF;strokeWidth=1;" vertex="1" parent="1">
                    <mxGeometry x="491" y="340" width="30" height="30" as="geometry"/>
                </mxCell>
                <mxCell id="37" value="1" style="rounded=0;whiteSpace=wrap;html=1;strokeColor=#F0F0F0;shadow=0;fillColor=none;fontColor=#FFFFFF;strokeWidth=1;" vertex="1" parent="1">
                    <mxGeometry x="591" y="280" width="30" height="30" as="geometry"/>
                </mxCell>
                <mxCell id="39" value="1" style="rounded=0;whiteSpace=wrap;html=1;strokeColor=#F0F0F0;shadow=0;fillColor=none;fontColor=#FFFFFF;strokeWidth=1;" vertex="1" parent="1">
                    <mxGeometry x="551" y="340" width="30" height="30" as="geometry"/>
                </mxCell>
            </root>
        </mxGraphModel>
    </diagram>
</mxfile>